<svg xmlns="http://www.w3.org/2000/svg" viewBox="0 0 284.76 216"><defs><style>.a{fill:#ffd400;fill-rule:evenodd;}.b{fill:#243754;}.c{fill:#3674a6;}.d{fill:#70aacb;}.e{fill:#e31e25;}.f{fill:#9bd7f4;}.g{fill:#5f8fb2;}.h{fill:#366189;}</style></defs><path class="a" d="M218.9,47.41c0,1,12.31,3.09,13.32,4s2.57,13.32,3.19,13.39,2.31-12.35,3.2-13.39,13.15-3,13.15-4-12.18-2.58-13.14-3.59-2.24-13.63-3.22-13.63-2.2,12.51-3.18,13.63S218.9,46.46,218.9,47.41Z"/><path class="a" d="M188.39,85.63c-4.6-4.82-10.62-65-15.31-65-3.93,0-8.65,41.93-12.82,58.64h2.92V87h-7.5a2.56,2.56,0,0,1-.24.11v7.63h-7.75v7.75h-7.75v7.75H132.2V94.73h15.49V89.5c-8.4,2.16-20.45,4.42-31,6.59v6.39h7.74v7.75h-7.74v-7.75H109V97.74c-2.92.65-5.55,1.28-7.75,1.9v2.84H94.53a.72.72,0,0,0-.13.35c0,4.58,58.63,14.69,63.51,19,4.76,4.16,12.31,63.51,15.23,63.82s11-58.88,15.25-63.82,62.75-14.24,62.75-19.09S193,90.51,188.39,85.63Z"/><rect class="b" x="56.17" y="75.37" width="7.74" height="7.75"/><rect class="c" x="72.84" y="63.76" width="7.75" height="7.75"/><rect class="d" x="97.35" y="86.99" width="7.74" height="7.74"/><rect class="e" x="99.19" y="71.5" width="7.75" height="7.75"/><rect class="f" x="144.9" y="76.83" width="7.75" height="7.75"/><rect class="c" x="84.04" y="75.37" width="7.74" height="7.75"/><rect class="f" x="110.95" y="79.25" width="7.74" height="7.75"/><rect class="f" x="128.33" y="66.11" width="7.75" height="7.74"/><path class="g" d="M50.1,150h5.65l-6-14.66-10.24,24H36.85l11.68-26.75H51.1l11.26,26.75h-2.8l-2.91-7.1H49.11"/><path class="g" d="M66.93,154.43a6.77,6.77,0,0,0,6.12,3.37c3.36,0,6-2,6-5.26,0-7.48-13.79-3.09-13.79-13.26,0-4.76,4.08-7.33,8.57-7.33a8.71,8.71,0,0,1,7.3,3.36L79,136.86a6,6,0,0,0-5.21-2.64c-3.21,0-6,1.66-6,5.06,0,8.05,13.79,3.21,13.79,13.26,0,4.84-4,7.52-8.31,7.52-3.51,0-6.61-1.13-8.69-4Z"/><path class="g" d="M93.15,134.9H84v-2.27h20.78v2.27H95.65v24.48h-2.5Z"/><path class="g" d="M108.91,132.63h7c2.11,0,9.52,0,9.52,7,0,5.1-3.89,6.5-6.84,6.88l7.78,12.84h-2.83l-7.52-12.69H111.4v12.69h-2.49Zm2.49,11.79h5.29c5.26,0,6.28-2.91,6.28-4.76s-1-4.76-6.28-4.76H111.4Z"/><path class="g" d="M143.41,132c8.16,0,13.83,5.9,13.83,14.06s-5.67,14.05-13.83,14.05-13.83-5.89-13.83-14.05S135.25,132,143.41,132Zm0,25.85c7,0,11.33-5.14,11.33-11.79s-4.34-11.79-11.33-11.79-11.34,5.14-11.34,11.79S136.42,157.8,143.41,157.8Z"/><path class="h" d="M37.26,163h6.42c6.25,0,11.49,2.66,11.49,9.77,0,6.28-5.13,9.65-10.91,9.65h-7Zm4.28,15.47h2.22c4,0,7-1.51,7-5.92,0-3.82-3-5.6-6.66-5.6H41.54Z"/><path class="h" d="M66.76,174.65H68.5l-2.39-6-5.32,13.77H56.08L64.47,163H68l8.44,19.42H71.63L70,178.27H65.36Z"/><path class="h" d="M97.75,174.65h1.74l-2.39-6-5.32,13.77H87.07L95.46,163H99l8.44,19.42h-4.82l-1.68-4.11H96.35Z"/><path class="h" d="M79.64,166.75H74.1V163H89.46v3.79H83.92v15.63H79.64Z"/><path class="h" d="M112.06,180.57h9v1.81h-11V163h2Z"/><path class="h" d="M130.57,175.46h4.2l-4.2-10.2-7.1,17.11h-2.3L129.61,163h1.92L140,182.38h-2.3l-2.14-5.1h-5.75Z"/><path class="h" d="M142.61,163h5.79c3.21,0,6.25,1.21,6.25,4.88a4.17,4.17,0,0,1-3.42,4.25v.06a4.5,4.5,0,0,1,4.38,4.85c0,1.27-.82,5.38-7.07,5.38h-5.93Zm2,8.5h4c1.89,0,3.94-.9,3.94-3.4,0-.79-.41-3.29-4.14-3.29h-3.78Zm0,9.11h3.78c2.86,0,5.1-1.13,5.1-3.68s-1.7-3.78-4.85-3.78h-4Z"/></svg>